<svg viewBox="0 0 1000 320" xmlns="http://www.w3.org/2000/svg" role="img" aria-label="Pons V2 launch activity by block height, 458,223 launches from block 27,027,321 to 62,899,527">
  <defs>
    <radialGradient id="glow" cx="18%" cy="8%" r="85%">
      <stop offset="0%" stop-color="#151c12" />
      <stop offset="100%" stop-color="#0a0e09" />
    </radialGradient>
  </defs>
  <rect x="0" y="0" width="1000" height="320" fill="url(#glow)" />
  <text x="40" y="26" font-family="Geist Mono, ui-monospace, monospace" font-size="12" letter-spacing="1.5" fill="#9aa890">LAUNCH ACTIVITY — ALL PONS V2 DEPLOYS</text>
  <line x1="40" y1="274" x2="960" y2="274" stroke="rgba(232,240,222,0.14)" stroke-width="1" />
  <g fill="#b8ef45" fill-opacity="0.85">
    <rect x="40.00" y="273.99" width="8.24" height="0.01" rx="1" /><rect x="50.24" y="273.90" width="8.24" height="0.10" rx="1" /><rect x="60.49" y="237.51" width="8.24" height="36.49" rx="1" /><rect x="70.73" y="267.70" width="8.24" height="6.30" rx="1" /><rect x="80.98" y="269.09" width="8.24" height="4.91" rx="1" /><rect x="91.22" y="269.22" width="8.24" height="4.78" rx="1" /><rect x="101.47" y="267.53" width="8.24" height="6.47" rx="1" /><rect x="111.71" y="271.60" width="8.24" height="2.40" rx="1" /><rect x="121.96" y="268.45" width="8.24" height="5.55" rx="1" /><rect x="132.20" y="269.64" width="8.24" height="4.36" rx="1" /><rect x="142.44" y="268.05" width="8.24" height="5.95" rx="1" /><rect x="152.69" y="271.44" width="8.24" height="2.56" rx="1" /><rect x="162.93" y="270.21" width="8.24" height="3.79" rx="1" /><rect x="173.18" y="271.57" width="8.24" height="2.43" rx="1" /><rect x="183.42" y="270.66" width="8.24" height="3.34" rx="1" /><rect x="193.67" y="268.17" width="8.24" height="5.83" rx="1" /><rect x="203.91" y="268.87" width="8.24" height="5.13" rx="1" /><rect x="214.16" y="267.41" width="8.24" height="6.59" rx="1" /><rect x="224.40" y="266.50" width="8.24" height="7.50" rx="1" /><rect x="234.64" y="264.66" width="8.24" height="9.34" rx="1" /><rect x="244.89" y="269.12" width="8.24" height="4.88" rx="1" /><rect x="255.13" y="255.77" width="8.24" height="18.23" rx="1" /><rect x="265.38" y="260.92" width="8.24" height="13.08" rx="1" /><rect x="275.62" y="260.73" width="8.24" height="13.27" rx="1" /><rect x="285.87" y="267.75" width="8.24" height="6.25" rx="1" /><rect x="296.11" y="264.49" width="8.24" height="9.51" rx="1" /><rect x="306.36" y="267.32" width="8.24" height="6.68" rx="1" /><rect x="316.60" y="266.95" width="8.24" height="7.05" rx="1" /><rect x="326.84" y="266.69" width="8.24" height="7.31" rx="1" /><rect x="337.09" y="264.18" width="8.24" height="9.82" rx="1" /><rect x="347.33" y="264.28" width="8.24" height="9.72" rx="1" /><rect x="357.58" y="264.76" width="8.24" height="9.24" rx="1" /><rect x="367.82" y="258.21" width="8.24" height="15.79" rx="1" /><rect x="378.07" y="268.11" width="8.24" height="5.89" rx="1" /><rect x="388.31" y="250.61" width="8.24" height="23.39" rx="1" /><rect x="398.56" y="266.73" width="8.24" height="7.27" rx="1" /><rect x="408.80" y="256.48" width="8.24" height="17.52" rx="1" /><rect x="419.04" y="266.08" width="8.24" height="7.92" rx="1" /><rect x="429.29" y="262.24" width="8.24" height="11.76" rx="1" /><rect x="439.53" y="265.98" width="8.24" height="8.02" rx="1" /><rect x="449.78" y="268.37" width="8.24" height="5.63" rx="1" /><rect x="460.02" y="265.32" width="8.24" height="8.68" rx="1" /><rect x="470.27" y="270.06" width="8.24" height="3.94" rx="1" /><rect x="480.51" y="265.04" width="8.24" height="8.96" rx="1" /><rect x="490.76" y="267.53" width="8.24" height="6.47" rx="1" /><rect x="501.00" y="254.27" width="8.24" height="19.73" rx="1" /><rect x="511.24" y="263.39" width="8.24" height="10.61" rx="1" /><rect x="521.49" y="236.33" width="8.24" height="37.67" rx="1" /><rect x="531.73" y="258.96" width="8.24" height="15.04" rx="1" /><rect x="541.98" y="220.20" width="8.24" height="53.80" rx="1" /><rect x="552.22" y="247.50" width="8.24" height="26.50" rx="1" /><rect x="562.47" y="190.95" width="8.24" height="83.05" rx="1" /><rect x="572.71" y="242.17" width="8.24" height="31.83" rx="1" /><rect x="582.96" y="211.35" width="8.24" height="62.65" rx="1" /><rect x="593.20" y="231.69" width="8.24" height="42.31" rx="1" /><rect x="603.44" y="199.71" width="8.24" height="74.29" rx="1" /><rect x="613.69" y="197.85" width="8.24" height="76.15" rx="1" /><rect x="623.93" y="177.94" width="8.24" height="96.06" rx="1" /><rect x="634.18" y="172.97" width="8.24" height="101.03" rx="1" /><rect x="644.42" y="213.05" width="8.24" height="60.95" rx="1" /><rect x="654.67" y="175.02" width="8.24" height="98.98" rx="1" /><rect x="664.91" y="214.44" width="8.24" height="59.56" rx="1" /><rect x="675.16" y="150.31" width="8.24" height="123.69" rx="1" /><rect x="685.40" y="190.82" width="8.24" height="83.18" rx="1" /><rect x="695.64" y="141.53" width="8.24" height="132.47" rx="1" /><rect x="705.89" y="194.27" width="8.24" height="79.73" rx="1" /><rect x="716.13" y="144.76" width="8.24" height="129.24" rx="1" /><rect x="726.38" y="179.27" width="8.24" height="94.73" rx="1" /><rect x="736.62" y="155.84" width="8.24" height="118.16" rx="1" /><rect x="746.87" y="168.76" width="8.24" height="105.24" rx="1" /><rect x="757.11" y="163.14" width="8.24" height="110.86" rx="1" /><rect x="767.36" y="142.77" width="8.24" height="131.23" rx="1" /><rect x="777.60" y="163.87" width="8.24" height="110.13" rx="1" /><rect x="787.84" y="161.94" width="8.24" height="112.06" rx="1" /><rect x="798.09" y="180.19" width="8.24" height="93.81" rx="1" /><rect x="808.33" y="124.23" width="8.24" height="149.77" rx="1" /><rect x="818.58" y="181.22" width="8.24" height="92.78" rx="1" /><rect x="828.82" y="46.00" width="8.24" height="228.00" rx="1" /><rect x="839.07" y="184.69" width="8.24" height="89.31" rx="1" /><rect x="849.31" y="144.60" width="8.24" height="129.40" rx="1" /><rect x="859.56" y="223.60" width="8.24" height="50.40" rx="1" /><rect x="869.80" y="187.36" width="8.24" height="86.64" rx="1" /><rect x="880.04" y="202.90" width="8.24" height="71.10" rx="1" /><rect x="890.29" y="187.91" width="8.24" height="86.09" rx="1" /><rect x="900.53" y="217.77" width="8.24" height="56.23" rx="1" /><rect x="910.78" y="198.04" width="8.24" height="75.96" rx="1" /><rect x="921.02" y="197.10" width="8.24" height="76.90" rx="1" /><rect x="931.27" y="175.72" width="8.24" height="98.28" rx="1" /><rect x="941.51" y="185.53" width="8.24" height="88.47" rx="1" /><rect x="951.76" y="205.26" width="8.24" height="68.74" rx="1" />
  </g>
  <text x="40" y="304" font-family="Geist Mono, ui-monospace, monospace" font-size="11" fill="#6c7864">block 27,027,321</text>
  <text x="960" y="304" font-family="Geist Mono, ui-monospace, monospace" font-size="11" fill="#6c7864" text-anchor="end">block 62,899,527</text>
  <text x="960" y="26" font-family="Geist Mono, ui-monospace, monospace" font-size="12" fill="#b8ef45" text-anchor="end">458,223 launches</text>
</svg>